<?xml version="1.0" encoding="utf-8"?>
<!-- Generator: Adobe Illustrator 21.1.0, SVG Export Plug-In . SVG Version: 6.00 Build 0)  -->
<svg version="1.1" id="logo" xmlns="http://www.w3.org/2000/svg" xmlns:xlink="http://www.w3.org/1999/xlink" x="0px" y="0px"
	 viewBox="0 0 120 120" style="enable-background:new 0 0 120 120;" xml:space="preserve">
<style type="text/css">
	.st0{fill:#FFFFFF;stroke:#000000;stroke-width:1.9755;stroke-miterlimit:10;}
</style>
<g>
	<g>
		<path class="st0" d="M39,80.1c0,0-23.7,2-25.7,5.9s-2,7.9,0,9.9s65.2,11.9,65.2,11.9s8.9,3,10.9,6.9c2,4,5.9-2,4-5.9
			c-2-4-7.9-7.9-7.9-7.9h-5.9H59.8c0,0-23.7-9.9-29.6-11.9c-5.9-2-11.9-2-11.9-2"/>
		<path class="st0" d="M77.6,81c0,0,25.7,4,27.7,7.9c2,4,2,9.9-2,9.9s-47.4,7.9-47.4,7.9s-15.8,2-17.8,4c-2,2-7.9,7.9-9.9,5.9
			c-2-2,5.9-15.8,8.9-14.8c3,1,26.7-3,30.6-4.9s17.8-7.9,29.6-5.9"/>
		<path class="st0" d="M40,83l2-25.7c0,0,0-7.9,0-13.8s4.6-13.8,17.8-13.8c7.9,0,15.8,5.9,17.8,11.9s0,11.9,0,15.8s0,27.7,0,27.7"/>
		<path class="st0" d="M51.9,19.8c0,0-2,15.8,7.9,15.8s7.9-15.8,7.9-15.8"/>
	</g>
	<polyline class="st0" points="42,38.6 30.2,59.3 53.9,87 	"/>
	<polyline class="st0" points="75.3,39.2 93.4,65.2 65.7,85 	"/>
	<ellipse class="st0" cx="60.8" cy="12.9" rx="12.8" ry="8.9"/>
</g>
</svg>
