<?xml version="1.0" encoding="utf-8"?>
<!-- Generator: Adobe Illustrator 21.1.0, SVG Export Plug-In . SVG Version: 6.00 Build 0)  -->
<svg version="1.1" id="_x34_" xmlns="http://www.w3.org/2000/svg" xmlns:xlink="http://www.w3.org/1999/xlink" x="0px" y="0px"
	 viewBox="0 0 120 120" style="enable-background:new 0 0 120 120;" xml:space="preserve">
<style type="text/css">
	.st0{fill:none;stroke:#000000;stroke-width:2.0862;stroke-linecap:round;stroke-linejoin:round;stroke-miterlimit:10;}
	.st1{fill:none;stroke:#000000;stroke-width:1.6287;stroke-linecap:round;stroke-linejoin:round;stroke-miterlimit:10;}
	.st2{fill:#FFFFFF;}
	.st3{fill:none;stroke:#000000;stroke-width:2;stroke-linecap:round;stroke-linejoin:round;stroke-miterlimit:10;}
</style>
<path class="st0" d="M78.9,87.6c-0.8-6.2,0.6-9.7,0.6-9.7"/>
<g>
	<path d="M44.3,36.2c-2.8,1.5-5.6,3.5-7.8,5.8c-2.2,2.3-4,5.1-4.8,8.1c-0.4,1.5-0.6,3.1-0.5,4.6c0.1,1.5,0.4,3.2,0.7,4.8
		c0.7,3.2,1.7,6.4,3.1,9.4c0.7,1.5,1.5,2.9,2.4,4.2c0.5,0.7,0.9,1.3,1.5,1.9c0.3,0.3,0.5,0.6,0.8,0.8c0.3,0.3,0.6,0.5,0.8,0.7
		c1.2,0.7,2.8,1.2,4.3,1.6c1.6,0.4,3.2,0.6,4.9,0.8c3.3,0.3,6.6,0.3,9.9,0c1.6-0.2,3.3-0.5,4.8-0.9c1.5-0.4,3-1.1,4-2l0,0
		c0.4-0.4,1.1-0.4,1.5,0.1c0.4,0.4,0.4,1.1,0,1.5c-1.5,1.4-3.2,2.1-4.9,2.7c-1.7,0.5-3.4,0.9-5.2,1.1c-3.5,0.4-6.9,0.5-10.4,0.2
		c-1.7-0.1-3.5-0.4-5.2-0.7c-0.9-0.2-1.7-0.4-2.6-0.7c-0.9-0.3-1.7-0.6-2.6-1.2c-1.7-1.2-2.8-2.6-3.8-4c-1-1.5-1.9-3-2.6-4.6
		c-1.5-3.2-2.6-6.5-3.3-9.9c-0.3-1.7-0.6-3.4-0.7-5.3c0-1.8,0.2-3.7,0.7-5.4c1-3.5,3.1-6.6,5.6-9.1c1.3-1.3,2.6-2.4,4.1-3.4
		c1.5-1,2.9-1.9,4.6-2.6c0.5-0.2,1.1,0,1.4,0.5C45,35.3,44.8,35.9,44.3,36.2L44.3,36.2z"/>
</g>
<g>
	<g>
		<path d="M63.4,12.3c2,2.8,3.6,5.9,4.4,9.3c0.4,1.7,0.7,3.4,0.7,5.2c0,1.8-0.3,3.5-0.8,5.2c-0.5,1.7-1.4,3.3-2.5,4.7
			c-1.2,1.4-2.6,2.5-4.2,3.3c-3.2,1.6-7.2,1.8-10.5,0.4c-3.4-1.3-6-3.9-7.9-6.9c-0.9-1.5-1.6-3.1-2.2-4.7c-0.5-1.6-1-3.3-1.3-4.9
			c-0.3-1.7-0.6-3.4-0.6-5.1c-0.1-1.7,0-3.5,0.3-5.2c0.3-1.7,0.9-3.5,2-5c1-1.5,2.6-2.8,4.4-3.4c0.5-0.2,1.1,0.1,1.3,0.7
			c0.2,0.5-0.1,1.1-0.7,1.3c-1.4,0.5-2.5,1.4-3.4,2.6c-0.8,1.2-1.3,2.7-1.6,4.2c-0.3,1.5-0.4,3.1-0.3,4.7c0,1.6,0.3,3.2,0.6,4.8
			c0.3,1.6,0.7,3.1,1.2,4.7c0.5,1.5,1.2,3,2,4.3c1.6,2.7,4,4.9,6.8,6c2.8,1.1,6.1,1,8.8-0.4c2.7-1.3,4.8-3.8,5.7-6.8
			c0.5-1.5,0.7-3,0.7-4.6c0-1.6-0.2-3.1-0.6-4.7c-0.8-3.1-2.2-6-4.1-8.6c-0.3-0.5-0.2-1.1,0.2-1.5C62.4,11.7,63,11.8,63.4,12.3
			L63.4,12.3z"/>
	</g>
	<polyline class="st1" points="43.1,21.8 44.4,19.5 48.4,20.7 	"/>
	<polyline class="st1" points="53.2,16 54,13.3 59.4,15.7 	"/>
	<path class="st1" d="M46.3,23.6l-0.6,2.7l-1.8-2.5c0,0,4.5-1.6,4.8,1.8"/>
	<path class="st1" d="M59.3,19l-0.6,2.6l-2.1-2.4c0,0,4.7-1.5,5,1.8"/>
	<g>
		<line class="st1" x1="51.1" y1="25.3" x2="55.1" y2="24.8"/>
		<line class="st1" x1="51.5" y1="27.6" x2="55.4" y2="27"/>
		<path class="st1" d="M51.9,21.4c0,0,1.5,13.1,5.2,9.2"/>
	</g>
	<path class="st1" d="M52.7,36.9c0,0,0.9-3.5,8.3-1.2"/>
	<g>
		<path d="M62.5,6.2c0.7,0.5,0.7,1.3,0,1.8l-2.8,2c-0.7,0.5-1.1,0.2-0.8-0.6l1-3.1c0.3-0.8,1.1-1.1,1.9-0.6L62.5,6.2z"/>
	</g>
	<g>
		<path d="M58,3.8c0.8,0.4,0.9,1.2,0.2,1.8l-2.8,2.4c-0.7,0.6-1.1,0.3-0.9-0.5l0.8-3.4c0.2-0.9,1-1.2,1.8-0.8L58,3.8z"/>
	</g>
</g>
<g>
	<g>
		<path d="M74.7,60.8c-1.9-2.2-3.9-4.4-5.9-6.5c-2-2.1-4.1-4.2-6.2-6.3c-0.4-0.4-0.4-1.1,0-1.5c0.1-0.1,0.1-0.1,0.2-0.2l0,0
			c1-0.6,2-1.3,2.8-2.1c0.4-0.4,0.7-0.8,0.8-1.2c0.1-0.4,0.1-0.4-0.1-0.6c-0.2-0.2-0.4-0.3-0.9-0.2c-0.4,0.1-0.9,0.2-1.4,0.5
			c-1,0.5-2,1.2-2.9,2c-0.3,0.2-0.6,0.3-1,0.2l0,0c-2-0.5-4.2-0.9-6.4-1c-2.2-0.2-4.4-0.1-6.5,0.1c-0.4,0-0.9,0.2-1.2,0.3
			c-0.3,0.2-0.5,0.4-0.6,0.6c-0.1,0.1,0,0.4-0.1,0.1c-0.1-0.1,0,0,0.1,0c0.3,0.2,0.8,0.3,1.3,0.4c2,0.3,4.3,0.3,6.5,0.2
			c0.6,0,1.1,0.4,1.1,1c0,0.2,0,0.4-0.1,0.5c-0.3,0.6-0.6,1.2-0.9,1.9c-0.3,0.6-0.5,1.3-0.7,2c-0.2,0.6-0.3,1.3-0.3,1.9
			c0,0.6,0.2,1,0.4,1.2L52.3,54l8.5,2.3c0.2,0.1,0.4,0.2,0.6,0.4c2,2.8,4.1,5.6,6.4,8.2c2.3,2.6,4.7,5.1,7.4,7
			c1.3,0.9,2.9,1.7,4.2,1.7c1.4-0.1,2.7-0.9,3.6-2.2c0.9-1.2,1.5-2.8,2-4.4c0.4-1.6,0.7-3.3,0.9-5c0.3-3.4,0.3-6.9,0.1-10.3
			c-0.1-0.9-0.1-1.7-0.2-2.6l-0.1-0.6c0-0.2-0.1-0.4-0.1-0.6c-0.1-0.4-0.2-0.8-0.3-1.2c-0.4-1.6-1.2-3.1-2-4.5
			c-1.7-2.8-4.2-5.3-7.1-6.7c-1.4-0.7-3.2-1.3-4.8-2c-1.6-0.7-3.2-1.4-4.8-2.1c-0.5-0.2-0.8-0.9-0.5-1.4c0.2-0.5,0.9-0.8,1.4-0.5
			l0,0l0,0c1.6,0.7,3.2,1.4,4.8,2.1c0.8,0.3,1.6,0.7,2.4,1c0.8,0.3,1.7,0.6,2.5,1.1c3.3,1.7,6,4.4,7.9,7.5c0.9,1.6,1.7,3.2,2.2,5
			c0.1,0.5,0.2,0.9,0.3,1.4c0,0.2,0.1,0.5,0.1,0.7l0.1,0.7c0.1,0.9,0.2,1.8,0.2,2.7c0.2,3.5,0.2,7.1-0.1,10.7
			c-0.2,1.8-0.5,3.6-0.9,5.3c-0.5,1.8-1.1,3.5-2.3,5.1c-1.1,1.6-3,2.9-5.1,3c-1.2,0-2.1-0.3-3-0.6c-0.9-0.4-1.7-0.9-2.5-1.4
			c-3-2.1-5.5-4.7-7.8-7.4c-2.3-2.7-4.5-5.5-6.5-8.4l0.6,0.4L51.7,56c-0.2,0-0.3-0.1-0.4-0.2l0,0c-0.4-0.4-0.7-0.9-0.9-1.4
			c-0.2-0.5-0.2-1-0.2-1.4c0-0.9,0.2-1.7,0.4-2.5c0.2-0.8,0.5-1.5,0.8-2.2c0.3-0.7,0.6-1.4,1-2.1l1,1.6c-2.3,0.1-4.6,0.1-6.9-0.2
			c-0.6-0.1-1.2-0.2-1.9-0.6c-0.3-0.2-0.8-0.4-1.1-1c-0.2-0.3-0.2-0.8-0.1-0.9c0-0.2,0-0.4,0.1-0.6c0.2-0.9,0.9-1.5,1.6-1.9
			c0.7-0.3,1.3-0.5,2-0.6c2.3-0.2,4.6-0.3,6.9-0.1c2.3,0.2,4.5,0.5,6.9,1.1l-1,0.2c1-0.9,2.1-1.6,3.3-2.3c0.6-0.3,1.3-0.6,2.1-0.7
			c0.4,0,0.9,0,1.3,0.1c0.5,0.1,0.9,0.4,1.3,0.7c0.3,0.3,0.6,0.8,0.7,1.3c0.1,0.5,0,1.1-0.1,1.5c-0.3,0.8-0.8,1.4-1.3,1.9
			c-1,1-2.1,1.7-3.2,2.4l0.2-1.7c2.1,2.1,4.2,4.2,6.3,6.3c2.1,2.2,4.1,4.3,6,6.6c0.4,0.4,0.3,1.1-0.1,1.5
			C75.7,61.3,75,61.3,74.7,60.8L74.7,60.8L74.7,60.8z"/>
	</g>
</g>
<path class="st0" d="M58.5,57.4"/>
<g>
	<path d="M82.9,103.6c2.5-0.1,5,0.1,7.5,0.5c2.5,0.4,5,1,7.3,2.4c1.2,0.7,2.3,1.5,3.1,2.7c0.4,0.6,0.8,1.2,1,1.9
		c0.2,0.6,0.4,1.3,0.6,2c0.1,0.7,0.1,1.5-0.2,2.4c-0.3,0.8-0.9,1.6-1.6,2c-1.4,0.9-2.9,0.9-4.2,0.9l-0.5,0l-0.5-0.1l-0.9-0.1
		l-1.8-0.2l-3.6-0.5c-2.4-0.3-4.8-0.6-7.2-1c-2.4-0.4-4.8-0.9-7.2-1.3c-2.4-0.4-4.8-0.6-7.2-0.9l0.2,0c-3.7,0.2-7.3,0.3-11,0.3
		c-3.7,0-7.3-0.2-11-0.5c-3.7-0.4-7.3-0.9-10.9-1.8c-3.6-0.9-7.2-2-10.6-3.9c-3.3-1.8-6.5-4.5-8.3-8.3C15,98,14.5,96,14.4,94
		c-0.1-2,0.1-4.2,1-6.1c0.9-2,2.4-3.6,4-4.8c1.7-1.2,3.5-1.9,5.4-2.5c1.9-0.5,3.7-0.8,5.6-1c1.9-0.1,3.7-0.2,5.6,0
		c0.6,0.1,1,0.5,0.9,1.1c-0.1,0.5-0.5,0.9-1,0.9l0,0c-3.5,0.1-7,0.6-10.2,1.7c-1.6,0.6-3.1,1.3-4.4,2.2c-1.3,1-2.2,2.2-2.8,3.5
		c-0.6,1.4-0.8,2.9-0.6,4.5c0.1,1.6,0.5,3.2,1.2,4.6c1.4,2.9,3.9,5.1,6.8,6.9c6,3.4,13.1,5.1,20.1,6.1c7.1,1,14.3,1.4,21.5,1.1l0,0
		c0,0,0.1,0,0.1,0c2.4,0.3,4.8,0.7,7.2,1c2.4,0.3,4.9,0.4,7.3,0.7c2.4,0.3,4.8,0.6,7.3,0.9l3.6,0.5l1.8,0.2l0.9,0.1l0.4,0.1l0.4,0
		c1.1,0.1,2.2-0.1,2.8-0.5c0.3-0.2,0.5-0.5,0.6-0.8c0.1-0.3,0.1-0.8,0.1-1.3c-0.1-0.5-0.2-1-0.4-1.5c-0.2-0.5-0.4-0.9-0.7-1.3
		c-0.6-0.8-1.4-1.5-2.4-2.1c-1.9-1.1-4.2-1.7-6.5-2.2c-2.3-0.4-4.7-0.6-7.1-0.6l0,0c-0.6,0-1-0.5-1-1C82,104,82.4,103.6,82.9,103.6z
		"/>
</g>
<g>
	<path d="M91.5,104.6c2.1-0.8,4.3-1.8,6.3-2.9c2-1.1,3.9-2.5,5.5-4c0.4-0.4,0.7-0.8,1.1-1.2c0.3-0.4,0.7-0.9,1-1.3
		c0.2-0.5,0.6-0.9,0.8-1.4c0.2-0.4,0.3-0.9,0.4-1.3c0.2-1.8-0.6-4.1-1.8-5.4c-0.5-0.5-0.9-0.9-1.2-1.3c-0.3-0.3-0.7-0.5-1.1-0.7
		c-0.8-0.4-1.9-0.6-3-0.8c-1.2-0.2-2.2-0.2-3.4-0.2c-1.1,0-2.3,0.1-3.5,0.2c-2.3,0.2-4.7,0.4-7.1,0.7c-2.4,0.3-4.7,0.6-7.1,0.9l0,0
		c-0.6,0.1-1.1-0.3-1.1-0.9c-0.1-0.5,0.3-1,0.8-1.1c4.7-1.1,9.4-1.9,14.3-2.5c1.2-0.1,2.4-0.2,3.7-0.3c1.2,0,2.6,0,3.8,0.2
		c1.3,0.2,2.5,0.4,3.9,1c0.7,0.3,1.3,0.7,1.9,1.2c0.5,0.5,0.9,1,1.3,1.3c1.1,1.1,1.7,2.4,2.1,3.7c0.4,1.3,0.6,2.8,0.4,4.2
		c-0.1,0.7-0.3,1.5-0.6,2.1c-0.3,0.7-0.7,1.2-1,1.8c-0.4,0.5-0.8,1.1-1.2,1.6c-0.5,0.5-0.9,1-1.4,1.4c-3.8,3.5-8.4,5.6-13.2,6.9
		c-0.5,0.1-1.1-0.2-1.2-0.7C90.7,105.3,91,104.8,91.5,104.6L91.5,104.6z"/>
</g>
<g>
	<path d="M27.8,109.5c-1.1,0.4-2.2,1-3,1.7c-0.4,0.3-0.7,0.7-0.9,1.1c-0.2,0.4-0.2,0.7-0.2,1.1c0,0.2,0.1,0.4,0.1,0.6
		c0.1,0.2,0.2,0.4,0.3,0.7c0.1,0.1,0.1,0.1,0.2,0.2c0.1,0,0.1,0.1,0.1,0.2c0.1,0.1,0.2,0.2,0.4,0.3c0.7,0.3,2,0.4,3.1,0.3
		c1.2-0.1,2.4-0.4,3.7-0.7c1.2-0.3,2.5-0.7,3.7-1.1c2.5-0.8,4.9-1.7,7.3-2.7c0.5-0.2,1.1,0,1.3,0.6c0.2,0.5,0,1-0.5,1.3
		c-2.4,1.2-4.8,2.4-7.3,3.3c-2.5,1-5.1,1.9-7.9,2.2c-1.4,0.1-3,0.3-4.7-0.4c-0.4-0.1-0.8-0.5-1.2-0.8c-0.2-0.1-0.3-0.4-0.5-0.6
		c-0.1-0.2-0.3-0.4-0.4-0.6c-0.2-0.4-0.4-0.7-0.5-1.1c-0.1-0.4-0.3-0.8-0.3-1.3c-0.1-0.9,0.1-1.9,0.6-2.7c0.5-0.8,1.1-1.4,1.7-1.9
		c1.3-0.9,2.7-1.3,4.2-1.6c0.5-0.1,1.1,0.3,1.2,0.8C28.6,108.9,28.3,109.3,27.8,109.5L27.8,109.5z"/>
</g>
<g>
	<g>
		<path d="M88.3,92.8c-0.3,4-3.7,7.2-7.7,7.2H43c-4,0-7.5-3.2-7.9-7.2l-2.2-21.7c-0.4-3.9,2.5-7.2,6.5-7.2h43.6c4,0,7,3.2,6.7,7.2
			L88.3,92.8z"/>
	</g>
	<g>
		<path class="st2" d="M66.3,85c0-0.1-0.1-0.1-0.2-0.2c-0.7-0.2-1.1-0.7-1.2-1.3c0-0.5,0.3-1,0.9-1.3c0.1,0,0.2-0.1,0.2-0.2
			c0-0.1,0-0.2-0.1-0.3l-0.1-0.1c-0.1-0.1-0.2-0.1-0.2-0.2c-0.8-0.6-1.7-0.7-2.8-0.4c-0.3,0.1-0.5,0.1-0.8,0.2c-0.1,0-0.2,0-0.3,0
			l-0.2-0.1c-0.1,0-0.3-0.1-0.4-0.1c-1.3-0.4-2.5,0.1-3.1,0.8c-0.5,0.5-0.7,1.1-0.6,1.8c0.1,1.2,0.6,2.4,1.8,3.3
			c0.3,0.2,0.6,0.4,1,0.5h0.4c0,0,0,0,0.1,0c0.4-0.1,2.7-0.1,3.1,0l0.2,0c0.7-0.1,1.1-0.4,1.4-0.7c0.5-0.5,0.8-0.9,1-1.4
			c0,0,0-0.1,0-0.1C66.4,85.1,66.4,85,66.3,85z"/>
		<path class="st2" d="M62.3,80c0.1,0,0.2,0,0.2,0c0.3-0.1,0.7-0.4,0.9-0.8c0.4-0.7,0.3-1.4-0.1-1.6c-0.5-0.3-1.1,0-1.5,0.7
			c-0.2,0.3-0.3,0.6-0.2,0.9c0,0.3,0.2,0.6,0.4,0.7C62,80,62.2,80,62.3,80z"/>
	</g>
</g>
<path class="st3" d="M74,24.5c0,0,1.5-0.8,4.8-4.5s1.8-7.2,1.8-7.2s3.2-6.2,6.5-2.5s2,9.5,4,9.2s4.2-4.8,2.2-4.8s-7.5,4-9,5
	s-9.5-3.5-9.5-6s1-10.8,4.2-8s8.5,10.8,13.5,2.5s10.8,11.8,4.8,13.5s-13.5,2-13.5,2S74.5,4.2,87.2,4.2c8.5,0,5.2,8.2,5.2,8.2"/>
</svg>
