<?xml version="1.0" encoding="utf-8"?>
<!-- Generator: Adobe Illustrator 21.1.0, SVG Export Plug-In . SVG Version: 6.00 Build 0)  -->
<svg version="1.1" id="レイヤー_1" xmlns="http://www.w3.org/2000/svg" xmlns:xlink="http://www.w3.org/1999/xlink" x="0px"
	 y="0px" viewBox="0 0 300 200" style="enable-background:new 0 0 300 200;" xml:space="preserve">
<style type="text/css">
	.st0{fill:#BFBFBF;}
	.st1{fill:#FFFFFF;}
	.st2{fill:#CCCCCC;}
	.st3{fill:#808080;}
	.st4{fill:#999999;}
	.st5{fill:none;stroke:#CCCCCC;stroke-width:4;stroke-miterlimit:10;}
</style>
<path class="st0" d="M181.8,71.3c0,17.6-14.3,15.7-31.8,15.7s-31.8,1.9-31.8-15.7s14.2-31.8,31.8-31.8S181.8,53.8,181.8,71.3z"/>
<circle class="st1" cx="137.3" cy="71.8" r="2.3"/>
<circle class="st1" cx="160.4" cy="71.8" r="2.3"/>
<g>
	<path class="st0" d="M86,123.5C86,93.6,120.2,93,150,93s64,0.7,64,30.5s-34.2,54-64,54S86,153.3,86,123.5z"/>
	<g>
		<path class="st2" d="M94.1,112.4c-2.2,6-3.4,11.1-9.4,8.9s-9.1-8.9-6.9-14.8c2.2-6,8.9-9.1,14.8-6.9
			C98.6,101.7,96.3,106.4,94.1,112.4z"/>
		<g>
			<path class="st0" d="M76.1,140.1c-1.4,2.4-4.4,3.2-6.8,1.8l-5.4-3.1c-2.4-1.4-3-4.2-1.2-6.5l15.3-19.9c1.6-2.2,5-2.8,7.4-1.5
				l1.4,0.8c2.4,1.4,3.2,4.4,1.8,6.8L76.1,140.1z"/>
		</g>
		<g>
			<g>
				<path class="st2" d="M100.5,141.6c2.6,0.9,3.9,3.7,2.8,6.3l-8.4,20.8c-1.1,2.5-3.9,3.7-6.5,2.6l-33-15.3
					c-2.5-1.2-3.7-4.2-2.7-6.7l6.6-16.5c1.1-2.5,4-3.9,6.6-3L100.5,141.6z"/>
			</g>
		</g>
	</g>
	<g>
		<path class="st2" d="M205.8,111c2.2,6,3.4,11.1,9.4,8.9c6-2.2,9.1-8.9,6.9-14.8s-8.9-9.1-14.8-6.9
			C201.3,100.3,203.6,105,205.8,111z"/>
		<g>
			<path class="st0" d="M223.7,138.7c1.4,2.4,4.4,3.2,6.8,1.8l5.4-3.1c2.4-1.4,3-4.2,1.2-6.5l-15.3-19.9c-1.6-2.2-5-2.8-7.4-1.5
				l-1.4,0.8c-2.4,1.4-3.2,4.4-1.8,6.8L223.7,138.7z"/>
		</g>
		<g>
			<path class="st2" d="M199.3,140.2c-2.6,0.9-3.9,3.7-2.8,6.3l8.4,20.8c1.1,2.5,3.9,3.7,6.5,2.6l33.1-15.3c2.5-1.2,3.7-4.2,2.7-6.7
				l-6.6-16.5c-1.1-2.5-4-3.9-6.6-3L199.3,140.2z"/>
		</g>
	</g>
</g>
<g>
	<g>
		<path class="st3" d="M200.3,195.5c0,2.4-2.7,4.5-6,4.5h-88.5c-3.4,0-6-2-6-4.5s2.7-4.5,6-4.5h88.5
			C197.5,191.1,200.3,193.1,200.3,195.5z"/>
	</g>
	<g>
		<path class="st4" d="M201.1,181.4c-0.5,5.3-5.2,9.6-10.5,9.6h-81.2c-5.3,0-10-4.3-10.5-9.6l-4-47.7c-0.5-5.3,3.5-9.6,8.8-9.6h92.3
			c5.3,0,9.3,4.3,8.8,9.6L201.1,181.4z"/>
	</g>
</g>
<g>
	<path class="st2" d="M272,198c0,1.1-0.9,2-2,2h-20c-1.1,0-2-0.9-2-2v-26c0-1.1,0.9-2,2-2h20c1.1,0,2,0.9,2,2V198z"/>
</g>
<circle class="st5" cx="248" cy="185" r="7"/>
</svg>
